<?xml version="1.0" standalone="no"?>
<!DOCTYPE svg PUBLIC "-//W3C//DTD SVG 20010904//EN"
 "http://www.w3.org/TR/2001/REC-SVG-20010904/DTD/svg10.dtd">
<svg version="1.0" xmlns="http://www.w3.org/2000/svg"
 width="1024.000000pt" height="1024.000000pt" viewBox="0 0 1024.000000 1024.000000"
 preserveAspectRatio="xMidYMid meet">

<g transform="translate(0.000000,1024.000000) scale(0.100000,-0.100000)"
fill="#000000" stroke="none">
<path d="M5954 6868 c-269 -18 -621 -159 -804 -324 l-25 -22 -80 59 c-156 115
-384 217 -585 262 -81 18 -129 21 -320 21 -214 1 -231 0 -333 -26 -212 -54
-387 -136 -543 -253 l-85 -65 -54 44 c-183 149 -461 264 -717 296 -142 18
-437 8 -551 -19 -305 -71 -545 -207 -778 -440 -230 -231 -368 -486 -436 -807
-24 -116 -27 -150 -27 -329 0 -150 4 -224 17 -295 48 -252 132 -453 275 -655
77 -108 266 -295 382 -377 113 -81 280 -166 405 -207 469 -154 1022 -74 1410
205 l75 54 96 -65 c524 -358 1240 -362 1759 -10 l96 65 81 -56 c191 -131 433
-223 668 -254 124 -17 349 -15 460 3 240 40 472 136 647 268 29 21 56 39 61
39 5 0 53 -29 106 -65 169 -113 341 -185 533 -224 466 -95 918 1 1276 270 398
299 633 741 654 1229 12 287 -37 534 -153 779 -209 443 -613 765 -1095 873
-92 20 -130 23 -329 23 -199 0 -237 -3 -329 -23 -132 -30 -252 -72 -365 -129
-87 -43 -253 -150 -276 -178 -9 -11 -31 1 -118 62 -299 210 -618 296 -998 271z
m2281 -350 c350 -52 685 -295 883 -641 101 -176 156 -402 155 -632 -2 -589
-395 -1080 -973 -1216 -134 -32 -400 -33 -541 -2 -145 31 -338 116 -437 192
l-24 17 66 93 c271 383 352 893 221 1381 -45 166 -137 359 -241 507 l-44 62
64 46 c92 65 255 140 371 170 167 42 324 50 500 23z m-5843 -3 c157 -27 312
-90 451 -183 37 -25 70 -48 72 -52 3 -4 -20 -45 -51 -91 -139 -207 -232 -466
-265 -733 -17 -138 -6 -401 21 -531 46 -217 129 -416 244 -585 35 -52 63 -98
60 -101 -12 -20 -211 -128 -288 -157 -159 -60 -250 -76 -441 -76 -184 -1 -271
12 -415 61 -267 91 -514 293 -658 540 -210 358 -225 859 -37 1233 116 231 336
455 555 565 90 45 230 93 320 110 102 18 327 19 432 0z m2023 -13 c96 -26 197
-67 280 -114 65 -37 165 -107 165 -116 0 -2 -14 -21 -30 -42 -98 -124 -214
-370 -260 -554 -41 -164 -53 -280 -48 -478 4 -142 10 -194 32 -293 52 -222
127 -396 251 -576 l65 -94 -28 -23 c-42 -34 -209 -118 -294 -146 -312 -105
-651 -81 -942 65 -63 32 -138 77 -174 105 -2 1 21 38 51 81 160 227 247 449
282 720 53 402 -40 809 -259 1136 -36 55 -66 101 -66 103 0 11 134 101 200
134 99 50 176 77 285 100 120 26 382 22 490 -8z m1937 -1 c110 -29 214 -74
315 -138 141 -87 137 -77 70 -177 -79 -118 -152 -269 -197 -405 -50 -149 -67
-235 -80 -403 -30 -373 67 -740 277 -1048 l65 -95 -27 -21 c-84 -67 -298 -156
-455 -190 -117 -25 -362 -26 -478 0 -164 35 -324 103 -460 194 -10 7 3 34 58
118 128 194 206 375 252 588 30 139 33 502 5 641 -44 216 -131 427 -252 610
-73 112 -74 105 15 165 119 81 283 149 425 176 104 20 367 12 467 -15z m-1188
-538 c132 -206 201 -417 213 -658 10 -210 -29 -415 -112 -592 -45 -96 -129
-233 -142 -233 -9 0 -75 98 -121 181 -117 208 -170 543 -127 800 21 127 73
291 121 379 33 60 115 189 122 190 1 0 22 -30 46 -67z m1956 -49 c127 -214
182 -417 182 -674 0 -213 -39 -386 -127 -560 -53 -106 -116 -203 -125 -193 -5
4 -33 49 -62 98 -141 233 -197 457 -185 740 10 237 72 445 188 625 60 95 49
98 129 -36z m-3892 44 c233 -360 273 -817 107 -1210 -38 -90 -132 -249 -150
-255 -14 -4 -118 168 -156 258 -141 342 -129 760 33 1084 45 89 106 185 118
185 4 0 26 -28 48 -62z"/>
</g>
</svg>
