<?xml version="1.0" standalone="no"?>
<!DOCTYPE svg PUBLIC "-//W3C//DTD SVG 20010904//EN"
 "http://www.w3.org/TR/2001/REC-SVG-20010904/DTD/svg10.dtd">
<svg version="1.0" xmlns="http://www.w3.org/2000/svg"
 width="1024.000000pt" height="1024.000000pt" viewBox="0 0 1024.000000 1024.000000"
 preserveAspectRatio="xMidYMid meet">

<g transform="translate(0.000000,1024.000000) scale(0.100000,-0.100000)"
fill="#000000" stroke="none">
<path d="M4840 9013 c-242 -15 -588 -77 -835 -148 -403 -117 -702 -257 -1070
-500 -969 -642 -1586 -1638 -1720 -2780 -47 -401 -22 -886 66 -1285 207 -935
712 -1731 1469 -2316 495 -383 1125 -646 1766 -739 339 -50 785 -58 1084 -20
926 116 1725 520 2365 1195 407 428 712 945 883 1495 299 956 242 1950 -163
2836 -189 414 -449 784 -789 1124 -281 281 -531 469 -870 655 -607 333 -1256
495 -1951 488 -99 -1 -205 -3 -235 -5z m216 -380 c-9 -30 -235 -1417 -416
-2548 -101 -632 -105 -654 -122 -670 -7 -6 -240 -194 -518 -416 -278 -222
-705 -564 -950 -759 -950 -761 -1050 -840 -1056 -840 -9 0 -141 282 -188 402
-118 307 -187 579 -238 948 -18 127 -17 618 1 765 17 143 55 354 87 480 194
766 679 1485 1334 1979 564 425 1256 664 1953 674 109 2 118 1 113 -15z m409
7 c344 -32 663 -106 984 -230 134 -52 426 -201 556 -285 402 -258 758 -593
1014 -954 443 -625 662 -1299 663 -2046 2 -518 -114 -1023 -354 -1555 -39 -85
-74 -159 -78 -163 -8 -9 -208 146 -995 773 -264 210 -561 446 -660 524 -99 78
-272 216 -385 305 -215 170 -497 392 -513 402 -5 4 -13 26 -17 50 -19 98 -353
2288 -420 2744 -22 154 -46 317 -53 363 l-14 82 81 0 c45 0 131 -5 191 -10z
m-248 -4245 c126 -53 1584 -627 2008 -790 355 -136 715 -269 923 -340 15 -6
20 3 -76 -145 -194 -299 -485 -606 -805 -849 -506 -383 -1081 -614 -1732 -697
-169 -22 -613 -25 -770 -6 -730 90 -1341 341 -1885 774 -294 234 -609 594
-793 904 -5 8 43 29 141 62 283 96 904 331 1867 707 165 65 462 180 660 256
197 77 361 142 364 144 10 10 42 4 98 -20z"/>
</g>
</svg>
