<!DOCTYPE svg PUBLIC "-//W3C//DTD SVG 20010904//EN" "http://www.w3.org/TR/2001/REC-SVG-20010904/DTD/svg10.dtd"[]><svg version="1.0" xmlns="http://www.w3.org/2000/svg" width="512" height="492" viewBox="0 0 1301.000000 1251.000000" preserveAspectRatio="xMidYMid meet"><g transform="translate(0.000000,1251.000000) scale(0.100000,-0.100000)" fill="#000000" stroke="none"><path d="M5675 12494 c-269 -7 -698 -25 -920 -39 -1541 -101 -3039 -391 -4500 -872 -126 -41 -233 -78 -237 -82 -4 -4 104 -118 241 -255 l249 -248 128 45 c1198 425 2604 704 4064 806 1095 77 2642 75 3720 -5 1399 -103 2792 -384 3959 -799 l133 -47 249 248 c137 137 245 251 241 255 -18 17 -675 225 -987 313 -1374 387 -2707 598 -4195 667 -218 10 -1852 20 -2145 13z" /><path d="M4025 11020 c-1179 -49 -2056 -183 -2746 -419 -97 -33 -197 -69 -223 -80 l-47 -21 15 -28 c26 -51 103 -146 183 -226 279 -281 774 -576 1202 -716 52 -17 95 -29 96 -28 1 2 9 44 19 93 60 315 350 552 866 708 369 112 825 174 1406 193 l211 7 5 -29 c3 -16 340 -2372 749 -5237 409 -2864 746 -5207 749 -5207 3 0 341 2354 752 5232 411 2877 750 5233 753 5236 9 9 564 -17 735 -33 890 -87 1463 -318 1677 -675 28 -46 69 -172 78 -237 4 -29 8 -53 10 -53 2 0 45 14 97 30 341 112 735 326 1024 558 154 124 313 293 360 384 14 27 13 29 -8 37 -13 5 -57 22 -98 39 -177 70 -466 156 -728 217 -604 139 -1289 219 -2182 255 -210 8 -1510 5 -1580 -4 -19 -3 -116 -7 -215 -10 l-180 -6 -247 -247 -248 -248 -247 247 -248 248 -180 5 c-99 4 -196 8 -215 11 -67 9 -1397 12 -1595 4z" /></g></svg>