<!DOCTYPE svg PUBLIC "-//W3C//DTD SVG 20010904//EN" "http://www.w3.org/TR/2001/REC-SVG-20010904/DTD/svg10.dtd"[]><svg version="1.0" xmlns="http://www.w3.org/2000/svg" width="391" height="512" viewBox="0 0 1806.000000 2363.000000" preserveAspectRatio="xMidYMid meet"><g transform="translate(0.000000,2363.000000) scale(0.100000,-0.100000)" fill="#000000" stroke="none"><path d="M6272 23538 c-27 -51 -1432 -2678 -3122 -5838 -1689 -3160 -3089 -5777 -3111 -5816 l-38 -70 3157 -5905 3158 -5904 906 -3 905 -2 3154 5897 c1735 3243 3155 5902 3157 5909 3 14 -4047 7594 -4057 7594 -6 0 -883 -1637 -896 -1671 -4 -10 586 -1122 1566 -2955 865 -1616 1573 -2948 1573 -2959 1 -27 -5395 -10118 -5405 -10108 -4 5 -1223 2280 -2708 5057 l-2700 5048 3151 5892 c1733 3240 3153 5899 3156 5909 4 16 -43 17 -896 17 l-900 0 -50 -92z" /><path d="M9892 23558 c-21 -40 -1444 -2699 -3160 -5909 l-3122 -5836 2026 -3789 c1115 -2084 2029 -3793 2033 -3797 4 -4 196 345 426 775 230 431 433 810 451 843 l33 61 -1579 2953 -1580 2954 2701 5051 c1486 2778 2704 5054 2708 5058 6 6 5403 -10076 5409 -10105 1 -6 -1417 -2667 -3153 -5911 -1735 -3245 -3155 -5901 -3155 -5903 0 -2 406 -3 903 -3 l903 0 3152 5893 c1733 3240 3154 5899 3157 5908 4 11 -1113 2109 -3140 5900 -1731 3236 -3153 5894 -3161 5907 l-14 22 -899 0 -899 0 -40 -72z" /></g></svg>