<?xml version="1.0" standalone="no"?>
<!DOCTYPE svg PUBLIC "-//W3C//DTD SVG 20010904//EN"
 "http://www.w3.org/TR/2001/REC-SVG-20010904/DTD/svg10.dtd">
<svg version="1.0" xmlns="http://www.w3.org/2000/svg"
 width="3000.000000pt" height="3000.000000pt" viewBox="0 0 3000.000000 3000.000000"
 preserveAspectRatio="xMidYMid meet">

<g transform="translate(0.000000,3000.000000) scale(0.100000,-0.100000)"
fill="#000000" stroke="none">
<path d="M14135 29384 c-126 -7 -288 -17 -360 -23 -71 -6 -179 -15 -240 -20
-246 -21 -645 -71 -885 -111 -30 -5 -82 -14 -115 -19 -191 -31 -458 -81 -595
-111 -19 -4 -60 -13 -90 -19 -30 -6 -83 -18 -117 -26 -35 -8 -91 -22 -125 -29
-171 -40 -330 -79 -388 -97 -36 -10 -117 -33 -180 -49 -63 -17 -151 -42 -195
-55 -44 -14 -98 -30 -120 -37 -22 -6 -78 -23 -125 -38 -47 -16 -137 -44 -200
-64 -63 -20 -124 -40 -135 -45 -11 -5 -33 -14 -50 -19 -16 -6 -77 -27 -135
-47 -95 -33 -233 -84 -285 -105 -11 -5 -54 -21 -95 -36 -41 -15 -79 -31 -85
-36 -5 -4 -15 -8 -22 -8 -7 0 -42 -13 -78 -30 -36 -16 -68 -30 -70 -30 -3 0
-69 -27 -147 -61 -157 -67 -165 -70 -288 -127 -47 -21 -114 -52 -150 -67 -109
-49 -606 -299 -760 -383 -611 -333 -1196 -705 -1695 -1078 -313 -234 -490
-374 -690 -544 -55 -47 -111 -94 -124 -105 -91 -75 -416 -369 -571 -516 -311
-296 -766 -775 -985 -1040 -11 -13 -58 -69 -105 -124 -218 -256 -504 -626
-725 -941 -183 -258 -460 -681 -560 -854 -17 -30 -52 -89 -77 -130 -174 -287
-523 -950 -643 -1220 -15 -36 -46 -103 -67 -150 -63 -137 -188 -426 -188 -435
0 -2 -11 -29 -25 -59 -14 -30 -25 -58 -25 -61 0 -3 -8 -25 -18 -48 -11 -23
-29 -69 -41 -102 -13 -33 -27 -69 -31 -80 -24 -60 -73 -193 -105 -285 -20 -58
-41 -118 -47 -135 -5 -16 -14 -39 -19 -50 -4 -11 -25 -72 -44 -135 -20 -63
-45 -140 -55 -170 -20 -60 -47 -148 -60 -195 -4 -16 -22 -77 -40 -135 -17 -58
-43 -145 -56 -195 -13 -49 -37 -142 -54 -205 -27 -103 -69 -274 -90 -370 -5
-19 -18 -80 -30 -135 -12 -55 -26 -116 -30 -135 -16 -73 -31 -147 -40 -195 -5
-27 -16 -88 -25 -135 -9 -47 -20 -111 -26 -142 -23 -141 -29 -177 -39 -233
-14 -79 -41 -274 -65 -465 -72 -581 -105 -1131 -105 -1767 0 -728 37 -1281
130 -1968 18 -131 27 -186 50 -327 6 -32 14 -84 20 -115 27 -163 36 -213 72
-393 37 -185 56 -273 92 -435 9 -38 39 -158 66 -265 28 -107 55 -211 59 -230
78 -316 325 -1075 441 -1355 5 -11 30 -76 56 -145 26 -69 57 -147 70 -175 12
-27 36 -84 52 -125 16 -41 44 -105 61 -143 17 -37 31 -69 31 -71 0 -2 18 -44
41 -93 22 -48 57 -124 77 -168 68 -151 341 -690 425 -840 46 -82 96 -172 111
-200 254 -456 709 -1145 1051 -1592 70 -91 205 -263 220 -280 5 -6 33 -39 60
-74 565 -703 1355 -1499 2033 -2047 452 -365 705 -552 1112 -825 338 -226 425
-281 780 -492 117 -69 308 -174 545 -301 111 -58 542 -274 550 -274 2 0 54
-24 117 -53 129 -61 142 -67 293 -132 61 -26 128 -55 150 -65 22 -10 76 -32
120 -49 44 -17 100 -40 125 -51 68 -29 366 -141 530 -199 236 -83 666 -220
855 -271 17 -5 64 -18 105 -29 71 -20 453 -115 640 -160 83 -20 445 -94 545
-111 351 -62 628 -103 940 -140 50 -6 108 -13 130 -16 188 -25 724 -61 1145
-76 366 -13 406 -13 770 0 474 18 879 46 1180 82 47 5 121 14 165 20 218 26
438 57 630 90 444 76 657 120 1080 225 227 57 313 79 440 115 17 5 46 13 65
19 193 53 641 198 885 286 155 55 338 125 357 136 10 5 22 9 28 9 6 0 29 9 53
19 23 11 89 39 147 61 58 23 123 50 145 60 22 10 94 41 160 70 66 28 161 71
210 95 50 23 124 58 165 76 82 37 507 250 608 305 34 19 92 50 130 71 853 461
1799 1121 2546 1778 1129 990 2061 2097 2834 3365 96 159 270 460 337 585 21
39 50 93 65 120 45 80 262 513 299 595 18 41 53 116 76 165 24 50 67 144 95
210 29 66 60 138 70 160 10 22 37 87 60 145 22 58 50 124 61 147 10 24 19 47
19 53 0 6 4 18 9 28 59 107 350 972 441 1307 5 17 18 64 29 105 28 100 145
571 171 690 65 291 162 826 190 1050 6 47 15 114 20 150 5 36 14 103 20 150 5
47 15 123 20 170 11 84 20 185 40 415 18 210 39 643 41 850 1 110 6 205 11
212 5 6 7 51 4 100 -3 48 -8 167 -11 263 -12 404 -33 753 -64 1100 -13 137
-40 372 -61 520 -5 41 -17 125 -25 185 -12 92 -46 302 -85 520 -17 99 -91 462
-111 545 -39 166 -139 566 -160 640 -11 41 -24 89 -29 105 -27 101 -128 428
-180 585 -77 234 -102 304 -205 580 -48 129 -54 145 -75 195 -7 17 -32 80 -57
140 -24 61 -50 124 -57 140 -8 17 -44 100 -81 185 -37 85 -91 206 -121 268
-30 63 -54 115 -54 118 0 8 -231 466 -308 609 -114 214 -199 367 -257 465
-169 285 -224 372 -388 625 -291 447 -528 771 -933 1271 -408 506 -1060 1181
-1589 1646 -153 134 -406 347 -516 433 -550 433 -912 688 -1462 1031 -94 59
-407 244 -412 244 -2 0 -59 32 -127 71 -123 72 -772 403 -923 471 -44 20 -120
55 -168 77 -49 23 -91 41 -93 41 -2 0 -34 14 -71 31 -38 17 -102 45 -143 61
-41 16 -97 40 -125 52 -27 13 -106 44 -175 70 -69 26 -134 51 -145 56 -159 65
-522 192 -790 275 -66 20 -131 41 -145 45 -93 31 -317 95 -420 121 -19 4 -123
31 -230 59 -107 27 -226 57 -265 66 -187 41 -254 55 -435 92 -180 36 -230 45
-392 72 -32 6 -84 14 -115 20 -140 23 -196 32 -328 50 -387 54 -767 89 -1235
115 -325 18 -1145 18 -1475 -1z m1310 -1185 c551 -23 1043 -71 1520 -150 135
-22 173 -28 225 -38 30 -5 116 -21 192 -35 75 -13 165 -31 200 -39 34 -8 108
-25 163 -37 377 -84 837 -208 1145 -310 47 -15 123 -40 170 -54 47 -15 94 -31
105 -35 31 -14 105 -41 155 -58 43 -14 213 -76 255 -93 11 -4 101 -40 200 -80
99 -40 194 -78 210 -86 17 -7 91 -40 165 -72 74 -32 169 -74 210 -93 123 -55
676 -333 795 -400 61 -34 139 -77 175 -97 99 -54 400 -235 535 -320 573 -364
1063 -727 1580 -1170 414 -354 1008 -949 1351 -1351 16 -19 45 -53 64 -75 155
-178 502 -621 658 -841 23 -33 62 -87 85 -120 173 -241 504 -761 635 -995 14
-25 53 -94 87 -155 90 -158 135 -244 253 -480 105 -210 232 -473 232 -480 0
-2 13 -32 29 -67 16 -35 41 -90 56 -123 33 -72 221 -539 260 -645 101 -276
207 -594 260 -775 15 -49 36 -119 47 -155 64 -208 212 -819 259 -1065 5 -27
18 -97 29 -155 11 -58 25 -132 31 -165 5 -33 14 -82 19 -110 31 -179 85 -584
109 -830 92 -931 92 -1733 0 -2650 -33 -334 -105 -844 -149 -1060 -6 -27 -15
-75 -21 -105 -6 -30 -15 -75 -20 -100 -55 -284 -190 -842 -258 -1065 -5 -16
-24 -77 -41 -135 -63 -209 -217 -673 -240 -725 -5 -11 -52 -132 -106 -270
-104 -269 -160 -402 -262 -625 -168 -368 -336 -698 -530 -1040 -58 -102 -114
-201 -125 -220 -10 -19 -28 -47 -38 -62 -11 -14 -19 -29 -19 -32 0 -6 -84
-140 -227 -361 -84 -131 -274 -411 -333 -490 -328 -443 -373 -501 -584 -755
-525 -630 -1087 -1191 -1706 -1706 -246 -205 -330 -270 -755 -584 -82 -61
-361 -251 -490 -334 -207 -132 -356 -226 -362 -226 -3 0 -17 -8 -31 -19 -15
-10 -43 -28 -62 -38 -19 -11 -118 -67 -220 -125 -272 -154 -622 -337 -845
-440 -133 -62 -258 -119 -295 -135 -19 -8 -64 -29 -100 -45 -78 -36 -610 -248
-622 -248 -4 0 -27 -9 -51 -19 -66 -31 -487 -173 -712 -240 -38 -12 -99 -30
-135 -41 -264 -81 -829 -219 -1110 -271 -30 -6 -73 -14 -95 -19 -22 -5 -69
-14 -105 -20 -36 -6 -85 -16 -110 -20 -174 -35 -674 -103 -952 -130 -248 -23
-321 -30 -483 -39 -786 -49 -1379 -37 -2160 40 -265 26 -636 75 -830 109 -27
5 -77 14 -110 19 -33 6 -107 20 -165 31 -58 11 -127 24 -155 29 -151 29 -422
91 -660 152 -257 65 -319 82 -585 162 -242 72 -647 210 -785 267 -11 5 -87 34
-170 66 -82 31 -177 69 -210 84 -33 14 -76 32 -95 40 -19 7 -68 28 -108 46
-41 19 -76 34 -78 34 -2 0 -39 16 -81 36 -42 19 -100 45 -127 57 -72 30 -726
356 -756 377 -14 9 -54 33 -90 52 -191 104 -480 275 -666 394 -260 167 -326
210 -404 265 -47 33 -96 68 -110 77 -118 78 -435 316 -655 491 -348 277 -560
464 -944 831 -219 210 -663 677 -806 851 -17 20 -84 101 -151 180 -178 214
-414 515 -527 674 -152 213 -294 420 -397 580 -67 105 -133 206 -145 225 -219
334 -649 1148 -837 1585 -21 50 -45 104 -52 120 -8 17 -23 50 -34 75 -11 25
-34 81 -52 125 -17 44 -39 98 -49 120 -10 22 -26 60 -34 85 -9 25 -36 99 -62
165 -26 66 -55 145 -65 175 -10 30 -33 98 -53 150 -30 82 -122 364 -162 500
-30 98 -56 190 -85 295 -16 61 -34 124 -39 140 -9 29 -49 192 -91 370 -12 50
-27 117 -35 150 -36 151 -106 525 -155 825 -150 918 -193 2138 -110 3095 29
330 52 553 71 670 5 33 16 107 24 165 15 109 63 397 89 535 8 44 18 96 21 115
3 19 10 53 15 75 5 22 19 85 31 140 35 168 125 544 139 585 4 14 18 63 30 110
12 47 26 96 30 110 5 14 30 97 55 185 84 286 296 905 336 977 5 10 9 22 9 28
0 6 9 29 20 53 10 23 40 94 65 157 25 63 52 129 59 145 28 62 55 122 86 195
59 139 134 294 290 605 462 915 1019 1753 1699 2555 634 747 1372 1440 2151
2018 107 80 211 157 230 171 242 181 778 520 1220 771 231 132 835 434 1060
530 41 18 95 41 120 52 25 11 63 28 85 38 22 10 83 34 135 55 52 20 119 48
148 61 29 13 57 24 62 24 6 0 18 4 28 9 103 57 909 324 1242 412 41 11 89 24
105 29 95 27 463 116 600 145 44 10 98 21 120 26 22 5 63 13 90 19 866 164
1462 227 2405 253 138 4 446 -2 745 -14z"/>
<path d="M13900 27780 c-25 -4 -92 -13 -150 -19 -58 -7 -134 -16 -170 -21 -36
-5 -108 -14 -160 -20 -52 -6 -126 -15 -165 -20 -38 -5 -137 -16 -220 -26 -82
-9 -186 -21 -230 -28 l-80 -11 -7 -150 c-8 -195 -26 -716 -39 -1120 -12 -387
-31 -940 -60 -1720 -20 -547 -24 -746 -16 -754 4 -4 29 -4 55 0 26 5 79 13
117 18 74 11 371 56 465 71 30 5 87 14 125 20 39 6 94 13 122 17 29 3 58 11
63 18 6 8 15 127 20 286 12 338 26 722 40 1064 6 143 15 375 20 515 20 535 23
610 30 610 4 0 25 -55 48 -122 22 -68 64 -188 92 -268 28 -80 67 -190 85 -245
47 -136 158 -457 185 -530 12 -33 30 -85 40 -115 57 -171 122 -358 130 -375 5
-11 20 -54 34 -95 41 -124 106 -314 116 -335 5 -11 30 -83 56 -160 26 -77 55
-160 64 -185 l16 -45 352 -3 352 -2 15 37 c14 34 82 225 135 383 11 30 48 138
84 240 127 363 347 994 441 1265 40 116 87 251 105 300 17 50 43 125 56 168
14 42 29 77 33 77 11 0 19 -142 31 -515 5 -170 14 -429 20 -575 6 -146 15
-382 20 -525 32 -860 31 -855 54 -859 12 -3 55 -9 96 -16 98 -14 167 -25 420
-64 96 -15 271 -42 368 -55 29 -4 55 -5 57 -1 2 4 0 125 -5 271 -5 145 -14
397 -20 559 -6 162 -15 426 -20 585 -6 160 -15 416 -20 570 -6 154 -15 411
-20 570 -6 160 -15 407 -20 550 -5 143 -12 345 -16 448 -4 103 -10 189 -13
191 -6 4 -176 26 -361 46 -52 6 -124 15 -160 20 -36 5 -108 14 -160 20 -52 6
-126 15 -165 20 -38 5 -117 14 -175 20 -58 7 -127 16 -155 20 -27 5 -54 5 -58
1 -9 -9 -40 -94 -115 -316 -28 -82 -75 -220 -105 -305 -30 -85 -71 -204 -91
-265 -20 -60 -41 -119 -46 -130 -5 -11 -27 -74 -49 -140 -40 -119 -165 -483
-222 -645 -16 -47 -45 -130 -64 -185 -18 -55 -73 -212 -120 -350 -48 -137 -89
-258 -92 -267 -3 -10 -9 -18 -13 -18 -4 0 -23 48 -43 108 -84 253 -138 408
-147 424 -6 10 -10 25 -10 33 0 8 -4 23 -10 33 -5 9 -27 71 -49 137 -33 101
-98 292 -118 345 -3 8 -43 123 -88 255 -46 132 -124 359 -175 505 -50 146
-104 303 -120 350 -127 374 -153 441 -168 439 -4 -1 -27 -5 -52 -9z"/>
<path d="M23049 24855 c-31 -41 -56 -75 -112 -147 -10 -13 -118 -156 -240
-318 -122 -162 -224 -297 -227 -300 -3 -3 -80 -104 -171 -225 -157 -208 -250
-331 -638 -843 -90 -120 -280 -370 -421 -557 -141 -187 -289 -382 -328 -434
-40 -51 -72 -97 -72 -101 0 -4 48 -52 107 -107 60 -54 133 -121 163 -149 249
-232 407 -374 417 -374 7 0 27 8 45 18 18 10 51 25 73 34 22 9 81 35 130 58
50 23 104 47 120 55 17 7 70 32 118 54 49 23 90 41 92 41 2 0 51 23 110 50 59
28 108 50 110 50 3 0 141 64 262 121 34 16 64 29 66 29 3 0 49 21 103 46 55
25 113 52 129 59 17 7 64 29 105 48 41 19 98 44 125 57 28 12 87 40 131 61 45
21 84 39 87 39 3 0 48 20 99 44 186 87 270 126 274 126 3 0 50 21 208 94 43
20 81 35 83 33 4 -4 -71 -105 -335 -452 -67 -88 -188 -248 -269 -355 -81 -107
-150 -197 -153 -200 -4 -3 -69 -88 -146 -190 -284 -375 -530 -698 -626 -823
-54 -70 -98 -136 -98 -146 0 -10 25 -61 56 -112 31 -52 65 -107 74 -124 19
-33 115 -195 217 -367 36 -62 77 -132 91 -156 14 -24 30 -46 36 -48 7 -3 69
22 139 56 70 33 129 60 131 60 4 0 120 54 304 141 45 21 84 39 87 39 2 0 61
27 129 60 69 33 127 60 130 60 2 0 51 22 108 49 57 27 135 63 173 81 39 18 95
43 125 57 30 14 106 50 169 79 62 30 115 54 117 54 2 0 45 20 96 44 51 24 138
64 193 89 55 25 149 68 208 96 60 28 110 51 112 51 3 0 125 57 303 141 45 21
84 39 87 39 2 0 61 27 129 60 69 33 127 60 130 60 2 0 51 22 108 49 107 51
215 101 331 153 37 17 67 36 67 41 0 6 -13 31 -29 56 -16 25 -75 125 -131 221
-57 96 -133 224 -169 285 -36 60 -68 114 -71 120 -23 46 -73 125 -80 125 -5 0
-41 -15 -82 -34 -82 -38 -168 -78 -243 -111 -52 -24 -127 -58 -258 -119 -43
-20 -80 -36 -82 -36 -2 0 -46 -20 -97 -44 -183 -86 -270 -126 -273 -126 -2 0
-57 -25 -122 -56 -65 -31 -143 -66 -174 -79 -31 -14 -100 -45 -154 -70 -53
-25 -98 -45 -100 -45 -4 0 -234 -107 -278 -130 -37 -19 -67 -26 -67 -15 0 3
34 49 75 102 121 157 193 251 279 363 44 58 108 141 141 185 34 44 109 141
166 216 57 75 133 174 168 220 78 102 203 265 286 374 34 44 105 137 158 207
53 69 97 129 97 133 0 4 -35 50 -77 103 -43 52 -89 109 -103 128 -113 149
-424 524 -435 524 -7 0 -69 -26 -137 -58 -67 -33 -145 -69 -173 -82 -130 -59
-189 -87 -304 -141 -68 -33 -125 -59 -127 -59 -2 0 -60 -27 -130 -60 -69 -33
-128 -60 -129 -60 -2 0 -49 -22 -106 -49 -115 -53 -215 -100 -299 -138 -30
-14 -106 -50 -169 -79 -62 -30 -115 -54 -116 -54 -2 0 -52 -23 -111 -51 -211
-99 -254 -118 -254 -107 0 5 22 38 48 72 27 33 105 135 173 226 157 207 367
483 437 575 30 39 98 129 153 200 96 128 239 315 386 507 41 54 73 104 71 111
-2 8 -93 97 -203 197 -110 101 -232 213 -270 249 -62 58 -104 97 -196 179
l-26 23 -34 -46z"/>
<path d="M6475 24454 c-213 -29 -396 -115 -538 -253 -32 -31 -107 -119 -165
-196 -59 -77 -192 -246 -296 -375 -104 -129 -304 -379 -445 -554 -346 -432
-374 -467 -541 -672 -223 -276 -404 -501 -478 -593 l-66 -84 24 -16 c39 -26
424 -326 560 -436 137 -111 1005 -808 1380 -1108 129 -103 242 -193 250 -200
8 -6 62 -51 120 -98 369 -300 592 -478 602 -479 3 0 76 87 161 193 85 105 236
293 336 417 182 225 504 627 551 687 31 40 410 517 500 630 36 45 88 110 115
145 28 34 107 133 176 218 307 379 371 524 372 840 0 130 -4 168 -22 235 -53
191 -132 327 -270 466 -141 140 -284 222 -473 271 -99 25 -328 30 -418 9 -161
-37 -309 -102 -418 -183 -30 -22 -56 -37 -59 -34 -3 3 1 34 10 68 30 119 40
200 34 282 -14 205 -96 375 -262 542 -127 128 -264 210 -426 253 -73 19 -252
34 -314 25z m108 -960 c91 -23 148 -57 205 -118 75 -83 96 -144 96 -286 1
-106 -1 -119 -27 -167 -15 -29 -82 -119 -150 -200 -112 -134 -438 -539 -512
-634 -58 -74 -390 -483 -421 -517 l-30 -34 -55 44 c-30 24 -169 136 -309 248
-140 111 -261 209 -269 216 -13 12 -6 23 45 77 32 34 73 81 90 102 17 22 103
130 191 240 312 392 628 791 658 830 45 61 135 153 171 176 64 39 213 50 317
23z m1278 -838 c140 -43 229 -126 279 -262 18 -52 21 -78 18 -160 -3 -86 -7
-107 -34 -164 -23 -46 -195 -268 -588 -760 -307 -382 -563 -702 -571 -709 -26
-27 -41 -16 -379 267 -44 37 -105 90 -136 117 -31 28 -76 66 -100 86 l-44 36
34 44 c42 53 434 546 655 824 88 110 169 212 180 226 64 85 224 281 264 322
95 100 191 146 306 146 39 1 91 -6 116 -13z"/>
<path d="M14490 23444 c-483 -25 -954 -88 -1390 -184 -159 -36 -172 -39 -255
-60 -44 -12 -98 -26 -120 -31 -59 -15 -241 -67 -310 -90 -33 -11 -73 -24 -90
-29 -124 -37 -514 -181 -640 -235 -85 -36 -105 -45 -158 -69 -32 -14 -60 -26
-63 -26 -14 0 -468 -229 -599 -302 -233 -131 -243 -137 -355 -206 -392 -244
-792 -542 -1155 -861 -155 -136 -570 -551 -706 -706 -517 -589 -920 -1190
-1260 -1882 -60 -122 -109 -224 -109 -227 0 -3 -13 -35 -30 -71 -16 -36 -30
-68 -30 -70 0 -2 -11 -28 -24 -57 -54 -118 -157 -393 -241 -643 -30 -90 -107
-350 -124 -420 -5 -22 -19 -76 -31 -120 -21 -83 -24 -96 -60 -255 -52 -237
-96 -493 -129 -755 -47 -367 -56 -538 -55 -1035 0 -546 14 -752 84 -1225 9
-58 17 -107 40 -245 9 -55 35 -186 71 -355 19 -91 104 -416 139 -530 12 -38
24 -79 27 -90 2 -11 8 -29 13 -40 4 -11 25 -74 46 -140 21 -66 46 -140 55
-165 125 -324 178 -456 204 -515 18 -38 47 -104 66 -145 83 -187 220 -450 394
-755 136 -239 381 -598 635 -930 223 -292 645 -743 965 -1033 250 -225 570
-481 810 -647 55 -38 128 -88 162 -112 35 -24 65 -43 68 -43 3 0 27 -15 53
-33 98 -68 289 -183 503 -302 75 -41 467 -238 554 -277 87 -40 351 -151 415
-175 292 -112 535 -192 835 -274 22 -6 51 -15 65 -20 84 -27 586 -135 746
-159 208 -32 409 -59 479 -65 44 -4 94 -9 110 -10 341 -41 1159 -41 1590 1
140 13 337 36 390 45 33 5 87 14 120 19 91 14 285 50 330 60 22 5 96 21 165
36 112 23 191 43 455 113 104 28 335 100 357 112 10 5 26 9 36 9 10 0 22 4 28
8 5 4 27 14 49 21 95 31 291 104 299 112 6 5 16 9 23 9 7 0 32 8 56 19 23 10
67 29 97 41 65 26 86 36 203 89 49 23 91 41 94 41 6 0 390 193 438 220 22 13
69 39 105 58 36 20 94 53 130 75 36 22 81 48 100 59 282 161 771 510 1080 772
256 217 637 587 851 826 417 466 755 942 1088 1530 40 71 258 507 293 585 15
33 38 85 51 115 14 30 35 80 47 110 12 30 28 69 35 85 40 92 104 263 141 375
8 25 19 53 24 62 6 10 10 25 10 33 0 8 4 23 9 33 9 16 58 174 99 317 11 39 29
102 40 140 37 126 100 400 132 570 33 177 53 288 60 340 24 166 39 288 45 360
4 44 9 94 11 110 40 314 39 1234 -1 1570 -1 17 -6 66 -10 110 -7 82 -37 313
-55 420 -23 135 -52 292 -60 330 -5 22 -21 96 -36 165 -22 108 -53 234 -84
345 -5 17 -16 57 -24 90 -78 285 -210 666 -339 970 -32 77 -73 172 -90 210
-41 90 -236 482 -281 562 -128 229 -224 389 -354 588 -130 199 -342 485 -517
700 -359 440 -890 960 -1300 1275 -319 245 -696 503 -925 632 -25 14 -103 59
-175 100 -71 41 -215 117 -320 169 -173 86 -225 111 -380 179 -27 12 -72 32
-100 45 -27 12 -106 43 -175 70 -69 26 -138 53 -155 60 -45 20 -136 52 -275
97 -69 22 -134 44 -145 48 -25 10 -120 39 -160 50 -16 5 -57 16 -90 25 -96 26
-366 95 -410 104 -169 36 -300 62 -355 71 -138 23 -187 31 -245 40 -438 65
-650 80 -1140 84 -231 2 -449 2 -485 0z m823 -1194 c364 -30 579 -55 802 -94
219 -39 252 -46 460 -97 406 -99 811 -234 1180 -395 124 -55 472 -227 580
-289 54 -30 99 -55 100 -55 2 0 52 -30 112 -66 59 -37 128 -79 153 -94 221
-133 685 -478 875 -650 524 -475 873 -869 1217 -1375 224 -329 447 -726 592
-1055 26 -58 55 -122 66 -143 11 -22 20 -43 20 -48 0 -4 11 -32 24 -61 13 -29
35 -84 49 -123 14 -38 40 -108 57 -155 46 -125 103 -300 149 -460 12 -41 25
-88 30 -105 32 -105 119 -505 141 -645 60 -373 87 -651 97 -982 l6 -238 -3571
0 -3572 0 0 -3572 0 -3571 -232 6 c-254 7 -502 27 -728 57 -153 21 -185 26
-370 60 -153 29 -453 96 -535 121 -16 5 -64 18 -105 30 -257 74 -617 199 -747
259 -24 11 -47 20 -52 20 -5 0 -26 9 -48 20 -21 11 -85 40 -143 66 -146 64
-419 203 -571 290 -665 380 -1248 848 -1752 1404 -73 80 -135 147 -138 150
-35 31 -339 426 -459 596 -78 112 -320 496 -320 509 0 1 -25 47 -56 101 -31
55 -97 182 -148 284 -261 528 -430 1010 -576 1645 -88 381 -167 1076 -158
1395 l3 125 3568 3 3567 2 0 3563 c0 1960 3 3567 7 3570 10 10 289 8 426 -3z"/>
</g>
</svg>
