<svg width="126" height="57" viewBox="0 0 126 57" fill="none" xmlns="http://www.w3.org/2000/svg">
<path d="M110.075 22.615L103.882 34.0341H77.8363V42.0358H48.6455V34.0341H16.4084L22.6017 22.615H48.6463V14.6127H77.837V22.615H110.076H110.075ZM122.492 17.9483H82.7388V10.7369C82.7388 10.3299 82.3875 10 81.9558 10H44.4994C44.0677 10 43.7172 10.3292 43.7172 10.7369V17.9483H15.2246C14.7929 17.9483 14.2635 18.2775 14.0444 18.6845L3.58005 37.9748C3.36025 38.3811 3.53192 38.7104 3.96435 38.7104H43.7172V45.9231C43.7172 46.3287 44.0677 46.658 44.4994 46.658H81.9558C82.3875 46.658 82.7388 46.3287 82.7388 45.9231V38.7104H111.231C111.663 38.7104 112.192 38.3811 112.412 37.9748L122.874 18.6845C123.095 18.2775 122.923 17.9483 122.492 17.9483Z" fill="#393839"/>
</svg>
