<?xml version="1.0" standalone="no"?>
<!DOCTYPE svg PUBLIC "-//W3C//DTD SVG 20010904//EN"
 "http://www.w3.org/TR/2001/REC-SVG-20010904/DTD/svg10.dtd">
<svg version="1.0" xmlns="http://www.w3.org/2000/svg"
 width="931.000000pt" height="660.000000pt" viewBox="0 0 931.000000 660.000000"
 preserveAspectRatio="xMidYMid meet">

<g transform="translate(0.000000,660.000000) scale(0.100000,-0.100000)"
fill="#000000" stroke="none">
<path d="M4475 4843 c-161 -21 -560 -117 -895 -215 l-215 -63 -175 1 c-96 1
-317 11 -490 23 -1079 74 -2656 156 -2667 138 -11 -18 68 -118 120 -151 70
-46 99 -52 332 -70 369 -29 459 -36 645 -51 174 -14 645 -48 845 -60 108 -7
687 -50 870 -65 294 -25 336 -52 485 -312 285 -500 611 -817 1075 -1046 152
-76 131 -77 320 25 248 134 443 280 613 458 156 163 266 316 443 617 133 228
166 242 624 273 127 8 259 18 295 20 36 3 173 12 305 20 313 20 450 29 920 65
693 53 863 70 912 86 85 29 140 75 199 168 l18 29 -214 -7 c-475 -15 -1819
-89 -2565 -141 -518 -36 -488 -39 -850 65 -372 106 -580 156 -770 185 -99 15
-121 16 -180 8z m321 -218 c191 -39 671 -173 732 -204 112 -57 118 -154 23
-348 -97 -196 -221 -362 -407 -543 -168 -163 -370 -309 -549 -397 l-56 -28
-87 45 c-126 64 -332 205 -442 302 -192 169 -371 398 -473 603 -98 198 -100
297 -6 354 58 35 509 160 799 221 184 39 255 38 466 -5z"/>
<path d="M3819 4321 c-49 -16 -67 -31 -88 -74 -37 -77 -23 -159 38 -210 26
-21 43 -27 82 -27 27 0 65 7 84 15 l35 14 -3 68 -4 68 -57 3 c-54 3 -56 2 -56
-23 0 -21 4 -25 31 -25 28 0 30 -2 27 -32 -3 -31 -6 -33 -43 -36 -60 -4 -90
31 -90 103 0 71 29 105 90 105 23 0 50 -7 61 -15 28 -21 34 -18 34 15 0 18 -7
33 -17 38 -28 15 -95 22 -124 13z"/>
<path d="M4885 4323 c-40 -10 -65 -44 -65 -88 0 -49 14 -65 83 -94 51 -22 66
-43 47 -66 -16 -19 -70 -19 -96 0 -28 21 -34 18 -34 -13 0 -35 31 -52 95 -52
62 0 100 33 100 88 0 50 -17 69 -81 98 -61 27 -73 48 -40 69 21 14 29 14 65 2
l41 -15 0 29 c0 15 -4 30 -8 33 -15 9 -86 15 -107 9z"/>
<path d="M5243 4315 c-36 -15 -53 -42 -53 -82 0 -41 17 -59 83 -88 39 -17 57
-30 57 -43 0 -42 -55 -55 -110 -27 -30 15 -30 15 -30 -14 0 -22 6 -31 28 -39
93 -37 172 -1 172 78 0 49 -23 74 -91 99 -32 12 -45 23 -47 39 -5 33 38 47 85
27 45 -19 43 -20 43 15 0 25 -5 30 -37 39 -48 14 -61 13 -100 -4z"/>
<path d="M4030 4165 l0 -155 89 0 c87 0 89 1 93 25 5 25 4 25 -58 25 l-64 0 0
40 0 40 55 0 c52 0 55 1 55 25 0 24 -3 25 -55 25 l-55 0 0 40 0 40 60 0 c57 0
60 1 60 25 0 25 -1 25 -90 25 l-90 0 0 -155z"/>
<path d="M4270 4165 l0 -155 31 0 31 0 -4 110 c-3 61 -4 110 -3 110 1 0 33
-49 70 -110 61 -97 73 -110 97 -110 l28 0 0 155 0 155 -30 0 -30 0 0 -97 0
-98 -63 97 c-58 91 -64 98 -94 98 l-33 0 0 -155z"/>
<path d="M4587 4168 l2 -153 91 -3 90 -3 0 26 c0 24 -2 25 -60 25 l-60 0 0 40
0 40 55 0 c52 0 55 1 55 25 0 24 -3 25 -54 25 l-54 0 -4 40 -4 40 63 0 c61 0
63 1 63 25 0 25 -1 25 -92 25 l-93 0 2 -152z"/>
<path d="M5070 4165 l0 -155 30 0 30 0 0 155 0 155 -30 0 -30 0 0 -155z"/>
<path d="M250 4441 c0 -16 167 -149 280 -224 210 -140 395 -208 610 -227 58
-5 220 -14 360 -20 140 -5 422 -17 625 -25 616 -26 777 -46 840 -106 20 -19
20 -19 -10 -15 -38 7 -330 23 -650 36 -137 5 -297 12 -354 15 -57 3 -228 7
-380 10 l-276 5 43 -19 c50 -24 221 -80 347 -115 362 -99 801 -170 1345 -216
74 -6 159 -18 189 -26 56 -16 101 -40 101 -55 0 -5 -147 -9 -332 -10 -236 0
-326 -3 -308 -10 34 -14 308 -84 450 -116 143 -31 730 -151 730 -149 0 1 -40
42 -88 91 -92 95 -237 265 -339 400 -33 44 -106 142 -163 218 -170 229 -257
305 -380 335 -49 12 -320 40 -700 72 -725 61 -1910 159 -1932 160 -5 0 -8 -4
-8 -9z"/>
<path d="M8625 4435 c-77 -8 -221 -21 -320 -29 -228 -21 -1323 -112 -1515
-126 -299 -23 -577 -51 -633 -65 -118 -30 -169 -80 -416 -410 -219 -292 -306
-399 -438 -536 -72 -75 -91 -99 -72 -95 13 3 170 35 349 71 300 59 631 137
776 182 l59 18 -332 3 c-192 1 -333 6 -333 11 0 5 25 22 55 36 49 25 80 30
307 51 400 37 596 63 848 110 242 45 571 134 755 203 l80 30 -105 0 c-163 1
-876 -26 -1445 -56 -119 -6 -129 -5 -117 10 43 51 237 77 742 97 1119 45 1153
47 1289 86 190 56 399 179 604 358 31 28 57 54 57 58 0 10 -16 9 -195 -7z"/>
<path d="M2300 2365 c-106 -30 -201 -111 -247 -211 -116 -253 28 -527 302
-575 116 -20 260 16 343 85 l32 28 0 169 0 169 -140 0 -140 0 0 -60 0 -60 74
0 c71 0 74 -1 79 -26 2 -14 2 -54 0 -89 -5 -60 -7 -63 -42 -80 -52 -26 -156
-31 -223 -11 -200 58 -261 333 -107 485 50 50 103 71 179 71 74 0 138 -24 185
-70 l30 -29 47 32 c26 18 48 36 48 41 0 22 -92 95 -147 116 -76 29 -198 35
-273 15z"/>
<path d="M5487 2366 c-92 -34 -147 -96 -155 -176 -13 -138 42 -197 248 -265
111 -37 155 -77 147 -133 -11 -70 -93 -113 -183 -96 -55 10 -88 28 -133 75
l-39 41 -46 -27 c-25 -15 -46 -33 -46 -40 0 -7 20 -35 44 -62 64 -71 141 -104
245 -105 135 0 227 45 270 135 57 119 -5 255 -139 304 -214 78 -240 95 -240
153 0 103 161 129 250 40 l37 -37 47 26 c25 14 46 32 46 38 0 23 -70 91 -116
113 -57 28 -183 37 -237 16z"/>
<path d="M6607 2366 c-104 -37 -160 -111 -160 -210 0 -111 62 -168 250 -230
126 -42 165 -83 143 -152 -18 -54 -63 -79 -140 -79 -76 1 -118 19 -172 78
l-37 39 -45 -26 c-25 -14 -48 -31 -51 -36 -4 -6 22 -39 57 -74 76 -76 128 -96
252 -96 64 0 92 5 132 24 146 68 186 244 80 351 -41 40 -67 53 -230 111 -71
26 -106 58 -106 99 0 115 179 135 263 28 l19 -23 49 27 c27 16 49 30 49 33 0
3 -9 20 -20 38 -53 87 -223 137 -333 98z"/>
<path d="M2990 1980 l0 -390 230 0 230 0 0 55 0 55 -170 0 -170 0 0 115 0 115
145 0 145 0 0 55 0 55 -145 0 -145 0 0 105 0 105 170 0 170 0 0 60 0 60 -230
0 -230 0 0 -390z"/>
<path d="M3700 1980 l0 -390 60 0 60 0 0 285 0 285 98 -128 c53 -71 151 -199
217 -285 l120 -156 53 -1 52 0 0 390 0 390 -60 0 -61 0 3 -280 c2 -154 0 -279
-3 -278 -3 2 -51 62 -105 133 -54 72 -148 195 -209 275 l-111 145 -57 3 -57 3
0 -391z"/>
<path d="M4620 1980 l0 -390 238 0 237 0 0 55 0 55 -172 0 -173 0 0 115 0 115
145 0 145 0 0 55 0 55 -145 0 -145 0 0 105 0 105 170 0 170 0 0 60 0 60 -235
0 -235 0 0 -390z"/>
<path d="M6080 1980 l0 -390 60 0 60 0 0 390 0 390 -60 0 -60 0 0 -390z"/>
</g>
</svg>
