<svg version="1.0" xmlns="http://www.w3.org/2000/svg" width="412.87680000000006" height="249.03680000000003" viewBox="50.38079999999993 133.5296 412.87680000000006 249.03680000000003" preserveAspectRatio="xMidYMid meet">

<g transform="translate(0.000000,512.000000) scale(0.100000,-0.100000)" fill="#000000" stroke="none">
<path d="M2295 3534 c-16 -2 -79 -9 -140 -15 -777 -78 -1403 -428 -1500 -840
-108 -460 431 -900 1285 -1048 224 -39 319 -46 630 -46 308 0 374 5 610 46
852 147 1393 588 1285 1048 -53 223 -265 437 -590 596 -264 128 -639 224 -998
254 -116 10 -509 13 -582 5z m580 -154 c257 -22 666 -106 689 -142 15 -24 -9
-47 -139 -133 -146 -97 -252 -153 -415 -219 -74 -30 -168 -68 -208 -85 -40
-16 -136 -51 -214 -76 -123 -40 -154 -47 -229 -47 -73 -1 -93 3 -129 23 -63
35 -83 77 -76 164 5 80 66 265 110 334 57 89 137 161 204 181 39 12 266 12
407 0z m-941 -81 c-1 -8 -33 -58 -71 -110 -217 -292 -415 -631 -553 -944 -88
-200 -82 -189 -113 -193 -34 -4 -143 67 -227 150 -322 314 -189 692 331 937
256 121 637 217 633 160z m2096 -277 c287 -204 366 -462 213 -701 -139 -217
-505 -413 -949 -507 -83 -17 -120 -14 -111 9 3 7 44 67 92 132 223 305 401
614 550 950 36 82 71 155 77 163 17 20 54 7 128 -46z m-1145 -597 c69 -29 102
-106 84 -199 -16 -86 -68 -230 -105 -292 -45 -76 -117 -149 -174 -177 -42 -20
-58 -22 -216 -20 -260 2 -569 46 -823 116 -139 38 -135 54 44 172 150 100 290
171 485 248 410 161 591 200 705 152z"></path>
</g>
</svg>